HIERARCHY
ROOT Hips
{
    OFFSET 0.000000 0.000000 0.000000
    CHANNELS 6 Xposition Yposition Zposition Zrotation Xrotation Yrotation
    JOINT Spine
    {
        OFFSET -0.000000 14.517291 0.000000
        CHANNELS 3 Zrotation Xrotation Yrotation
        JOINT Spine1
        {
            OFFSET -0.000000 37.558300 0.000000
            CHANNELS 3 Zrotation Xrotation Yrotation
            JOINT Neck
            {
                OFFSET -0.000000 37.404057 3.400369
                CHANNELS 3 Zrotation Xrotation Yrotation
                JOINT Head
                {
                    OFFSET -0.000000 24.785618 -3.540803
                    CHANNELS 3 Zrotation Xrotation Yrotation
                    End Site
                    {
                        OFFSET -0.000000 35.408028 0.000000
                    }
                }
            }
            JOINT LeftShoulder
            {
                OFFSET 6.992933 33.973492 -0.192664
                CHANNELS 3 Zrotation Xrotation Yrotation
                JOINT LeftArm
                {
                    OFFSET 21.527611 0.000000 0.000000
                    CHANNELS 3 Zrotation Xrotation Yrotation
                    JOINT LeftForeArm
                    {
                        OFFSET 56.353916 0.000000 0.000000
                        CHANNELS 3 Zrotation Xrotation Yrotation
                        JOINT LeftHand
                        {
                            OFFSET 47.774071 0.000000 0.000000
                            CHANNELS 3 Zrotation Xrotation Yrotation
                            End Site
                            {
                                OFFSET 26.556021 0.000000 0.000000
                            }
                        }
                    }
                }
            }
            JOINT RightShoulder
            {
                OFFSET -7.065357 33.973492 -0.192664
                CHANNELS 3 Zrotation Xrotation Yrotation
                JOINT RightArm
                {
                    OFFSET -21.527611 0.000000 0.000000
                    CHANNELS 3 Zrotation Xrotation Yrotation
                    JOINT RightForeArm
                    {
                        OFFSET -56.353916 0.000000 0.000000
                        CHANNELS 3 Zrotation Xrotation Yrotation
                        JOINT RightHand
                        {
                            OFFSET -47.774071 0.000000 0.000000
                            CHANNELS 3 Zrotation Xrotation Yrotation
                            End Site
                            {
                                OFFSET -26.556021 0.000000 0.000000
                            }
                        }
                    }
                }
            }
        }
    }
    JOINT LeftUpLeg
    {
        OFFSET 17.704014 0.000000 0.000000
        CHANNELS 3 Zrotation Xrotation Yrotation
        JOINT LeftLeg
        {
            OFFSET -0.000000 -81.181816 0.000000
            CHANNELS 3 Zrotation Xrotation Yrotation
            JOINT LeftFoot
            {
                OFFSET -0.000000 -62.821102 0.000000
                CHANNELS 3 Zrotation Xrotation Yrotation
                JOINT LeftToeBase
                {
                    OFFSET -0.000000 -11.507608 26.556021
                    CHANNELS 3 Zrotation Xrotation Yrotation
                    End Site
                    {
                        OFFSET -0.000000 0.000000 7.081605
                    }
                }
            }
        }
    }
    JOINT RightUpLeg
    {
        OFFSET -17.704014 0.000000 0.000000
        CHANNELS 3 Zrotation Xrotation Yrotation
        JOINT RightLeg
        {
            OFFSET -0.000000 -81.181816 0.000000
            CHANNELS 3 Zrotation Xrotation Yrotation
            JOINT RightFoot
            {
                OFFSET -0.000000 -62.821102 0.000000
                CHANNELS 3 Zrotation Xrotation Yrotation
                JOINT RightToeBase
                {
                    OFFSET -0.000000 -11.507608 26.556021
                    CHANNELS 3 Zrotation Xrotation Yrotation
                    End Site
                    {
                        OFFSET -0.000000 0.000000 7.081605
                    }
                }
            }
        }
    }
}
MOTION
Frames:    6
Frame Time:    0.008333
-6.122888    150.592117    -75.668732    1.323826    -2.674420    46.807419    -1.487487    2.206921    -1.904224    -1.862013    1.605260    -0.618331    0.825418    9.918943    -20.414377    14.373385    -8.334007    -18.319241    0.514504    9.722706    -13.305113    -36.118484    21.366215    -43.195358    -4.206883    -31.288166    -119.058632    -12.304438    -36.197334    -11.607590    0.689356    11.635310    -6.300056    31.460428    17.069151    41.530205    -6.470242    7.162988    36.808033    -15.971527    4.391635    34.151585    27.395697    -5.303766    11.994132    -17.274652    34.547798    -11.858202    -5.083479    -23.114662    46.875946    0.000000    0.000000    0.000000    -25.248207    -19.310217    -20.336433    15.147908    36.776749    -14.393703    4.502655    -4.962023    -17.257925    0.000000    0.000000    0.000000    
-6.130849    150.612488    -75.695465    1.311808    -2.678728    46.791008    -1.490206    2.208721    -1.897012    -1.867644    1.598891    -0.615944    0.815546    9.933949    -20.409769    14.401598    -8.333808    -18.307842    0.515956    9.734108    -13.311294    -36.118362    21.390785    -43.176022    -4.205396    -31.291605    -119.057312    -12.308169    -36.198799    -11.600416    0.687827    11.622296    -6.287752    31.465075    17.064693    41.523705    -6.488137    7.135330    36.823444    -15.915951    4.392584    34.122463    27.387945    -5.291880    11.980927    -17.290485    34.554085    -11.840357    -5.032330    -23.150124    46.897152    0.000000    0.000000    0.000000    -25.223637    -19.298883    -20.279200    15.154280    36.694225    -14.404793    4.528894    -4.922905    -17.278633    0.000000    0.000000    0.000000    
-6.135435    150.632401    -75.720741    1.309548    -2.677505    46.777790    -1.499699    2.206201    -1.886483    -1.872361    1.606823    -0.612280    0.804847    9.924449    -20.410795    14.412763    -8.314307    -18.308466    0.506962    9.746310    -13.319858    -36.113014    21.397104    -43.159649    -4.213955    -31.268379    -119.062767    -12.309944    -36.189568    -11.595693    0.681727    11.617649    -6.282691    31.469954    17.032520    41.526863    -6.479608    7.137457    36.835930    -15.920611    4.393456    34.107811    27.367853    -5.273326    11.962227    -17.272688    34.504574    -11.844065    -5.017716    -23.132385    46.894878    0.000000    0.000000    0.000000    -25.213299    -19.283440    -20.238895    15.150491    36.622452    -14.405320    4.572019    -4.897739    -17.292784    0.000000    0.000000    0.000000    
-6.147915    150.650101    -75.750145    1.300932    -2.666386    46.759678    -1.506990    2.203414    -1.871208    -1.889525    1.601712    -0.607075    0.795545    9.917582    -20.413546    14.439910    -8.292464    -18.307922    0.504437    9.752138    -13.330404    -36.098236    21.432779    -43.151405    -4.214162    -31.287367    -119.069138    -12.347868    -36.202885    -11.622068    0.685663    11.617673    -6.297925    31.445873    17.046761    41.562637    -6.507059    7.104698    36.820530    -15.946985    4.362254    34.096184    27.336063    -5.264370    11.964927    -17.251225    34.462074    -11.829644    -5.213301    -23.257708    46.887402    0.000000    0.000000    0.000000    -25.203442    -19.290037    -20.195610    15.147166    36.555214    -14.431657    4.584589    -4.856647    -17.289822    0.000000    0.000000    0.000000    
-6.163487    150.667633    -75.770798    1.296250    -2.665846    46.750259    -1.519481    2.206030    -1.859563    -1.889563    1.605167    -0.603248    0.796172    9.888032    -20.412367    14.428844    -8.251741    -18.314260    0.502541    9.755199    -13.339260    -36.097927    21.446764    -43.147640    -4.214931    -31.277376    -119.073738    -12.385587    -36.191887    -11.624010    0.678887    11.618581    -6.315419    31.430721    17.054871    41.596363    -6.528476    7.074698    36.808353    -15.950042    4.336141    34.105442    27.321875    -5.252568    11.941702    -17.235998    34.412849    -11.832078    -5.198949    -23.233471    46.888908    0.000000    0.000000    0.000000    -25.182709    -19.287199    -20.155874    15.128843    36.499249    -14.456915    4.642439    -4.831569    -17.286417    0.000000    0.000000    0.000000    
-6.187294    150.683762    -75.796959    1.282204    -2.656067    46.739880    -1.531126    2.214345    -1.846085    -1.885040    1.579332    -0.599341    0.781044    9.889968    -20.418350    14.447405    -8.233694    -18.318014    0.493223    9.779757    -13.345549    -36.071751    21.470091    -43.163651    -4.203284    -31.303484    -119.072594    -12.401003    -36.197590    -11.640038    0.660821    11.620637    -6.316985    31.428682    17.063456    41.613533    -6.542281    7.061786    36.789055    -15.950072    4.323571    34.124645    27.313002    -5.268205    11.910361    -17.240671    34.387897    -11.801690    -5.183766    -23.206909    46.885353    0.000000    0.000000    0.000000    -25.165014    -19.299141    -20.120598    15.113019    36.442589    -14.443357    4.673317    -4.806653    -17.309546    0.000000    0.000000    0.000000    
